<svg xmlns="http://www.w3.org/2000/svg" viewBox="5 0 320 330" width="640" height="660">
  <defs>
    <!-- Gold gradient for traces -->
    <linearGradient id="goldGrad" x1="0%" y1="0%" x2="100%" y2="100%">
      <stop offset="0%" stop-color="#D4A848" />
      <stop offset="50%" stop-color="#C9A84C" />
      <stop offset="100%" stop-color="#B08D3E" />
    </linearGradient>
  </defs>

  <!-- Circuit lines / pin traces - dark charcoal -->
  <path fill="#1a1e2a" d="M 48.5,16.5 C 49.2389,16.369 49.9056,16.5357 50.5,17C 55.4672,22.9685 60.8005,28.6352 66.5,34C 71.2824,34.1186 75.9491,34.7852 80.5,36C 92.549,49.9271 104.716,63.7605 117,77.5C 119.109,81.3988 121.942,82.2321 125.5,80C 112.117,64.7392 98.6174,49.5726 85,34.5C 84.3987,33.0347 84.8987,32.0347 86.5,31.5C 100.49,45.8284 113.823,60.8284 126.5,76.5C 130.204,78.2408 133.871,78.4075 137.5,77C 123.702,61.2004 109.535,45.7004 95,30.5C 94.6554,28.7991 95.3221,27.4658 97,26.5C 104.699,35.8783 112.866,44.8783 121.5,53.5C 126.752,54.8061 132.086,55.6395 137.5,56C 141.594,61.5167 145.927,66.85 150.5,72C 160.896,73.0181 171.229,74.5181 181.5,76.5C 184.5,76 187.5,75.5 190.5,75C 203.862,61.3039 217.529,47.9706 231.5,35C 234.091,34.6992 234.925,35.8659 234,38.5C 219.833,52 205.667,65.5 191.5,79C 193.167,79.6667 194.833,79.6667 196.5,79C 214.349,61.9833 232.349,45.15 250.5,28.5C 252.101,29.0347 252.601,30.0347 252,31.5C 244.286,39.7162 236.119,47.3829 227.5,54.5C 226.05,59.0413 225.217,63.708 225,68.5C 219.642,74.3582 213.809,79.6915 207.5,84.5C 206.526,86.7427 206.192,89.076 206.5,91.5C 208.199,91.6602 209.866,91.4935 211.5,91C 228.969,75.1994 246.135,59.0327 263,42.5C 264.365,43.5929 264.699,44.9262 264,46.5C 247.693,62.139 231.36,77.8057 215,93.5C 213.52,99.3375 215.687,102.171 221.5,102C 229,95.1667 236.5,88.3333 244,81.5C 244.493,77.0317 245.493,72.6983 247,68.5C 253.317,63.0175 259.483,57.3508 265.5,51.5C 267.283,52.3482 267.783,53.6815 267,55.5C 261.333,60.5 255.667,65.5 250,70.5C 249.158,74.8693 248.158,79.2026 247,83.5C 239.333,90.5 231.667,97.5 224,104.5C 223.338,106.813 222.838,109.146 222.5,111.5C 224.226,111.815 225.893,111.981 227.5,112C 241.833,99 256.167,86 270.5,73C 272.025,71.9914 273.692,71.4914 275.5,71.5C 275.67,72.8221 275.337,73.9887 274.5,75C 259.036,88.1289 243.869,101.629 229,115.5C 227.795,117.534 227.628,119.534 228.5,121.5C 246.146,107.021 263.646,92.3548 281,77.5C 281.833,78.3333 282.667,79.1667 283.5,80C 273.667,88.5 263.833,97 254,105.5C 252.401,112.297 250.401,118.964 248,125.5C 243.152,128.926 238.485,132.592 234,136.5C 230.863,145.333 230.197,154.333 232,163.5C 255.111,187.947 278.278,212.447 301.5,237C 300.407,238.365 299.074,238.699 297.5,238C 275.018,213.684 252.018,189.851 228.5,166.5C 226.298,170.481 226.464,174.481 229,178.5C 252.667,202.833 276.333,227.167 300,251.5C 300.5,253.667 299.667,254.5 297.5,254C 282.777,239.611 268.443,224.945 254.5,210C 248.451,208.605 242.451,207.105 236.5,205.5C 231.167,200.167 225.833,194.833 220.5,189.5C 215.414,188.089 213.58,190.089 215,195.5C 237.778,219.614 260.611,243.781 283.5,268C 282.667,268.833 281.833,269.667 281,270.5C 258.278,246.439 235.445,222.272 212.5,198C 207.755,197.373 204.422,199.373 202.5,204C 215.538,218.036 228.205,232.37 240.5,247C 244.833,248 249.167,249 253.5,250C 260.365,256.531 266.865,263.364 273,270.5C 273.699,272.074 273.365,273.407 272,274.5C 265.135,267.969 258.635,261.136 252.5,254C 247.886,252.454 243.219,251.121 238.5,250C 225.725,236.566 213.725,222.566 202.5,208C 199.854,207.503 197.187,207.336 194.5,207.5C 194.351,208.552 194.517,209.552 195,210.5C 208.661,225.827 222.661,240.827 237,255.5C 237.345,257.201 236.678,258.534 235,259.5C 220.5,243.667 206,227.833 191.5,212C 189.098,211.186 186.765,211.353 184.5,212.5C 199.317,228.485 214.317,244.318 229.5,260C 228.646,261.022 227.646,261.855 226.5,262.5C 216.484,252.318 206.651,241.985 197,231.5C 194.263,232.61 191.429,232.777 188.5,232C 182.129,225.118 174.796,219.618 166.5,215.5C 157.746,216.425 149.079,215.759 140.5,213.5C 136.986,213.788 133.986,215.121 131.5,217.5C 111.418,237.914 91.4182,258.247 71.5,278.5C 70.354,277.855 69.354,277.022 68.5,276C 89.3333,255.167 110.167,234.333 131,213.5C 131.749,212.365 131.583,211.365 130.5,210.5C 128.885,211.154 127.218,211.654 125.5,212C 106.195,232.305 86.5287,252.305 66.5,272C 65.552,272.483 64.552,272.649 63.5,272.5C 63.3505,271.448 63.5172,270.448 64,269.5C 75.6965,258.138 87.0298,246.471 98,234.5C 99.7031,227.914 101.036,221.247 102,214.5C 106.822,210.678 111.322,206.512 115.5,202C 114.13,198.621 111.797,197.788 108.5,199.5C 88.7759,218.223 69.7759,237.557 51.5,257.5C 50.5,257.167 49.8333,256.5 49.5,255.5C 68.1511,235.682 86.9844,216.015 106,196.5C 106.481,192.266 104.981,188.766 101.5,186C 100.667,185.833 99.8333,185.667 99,185.5C 88.2776,193.546 78.1109,202.38 68.5,212C 67.552,212.483 66.552,212.649 65.5,212.5C 65.6662,218.509 65.4995,224.509 65,230.5C 58,236.833 51,243.167 44,249.5C 43.1301,248.892 42.6301,248.059 42.5,247C 48.2037,240.959 54.2037,235.125 60.5,229.5C 61.1919,223.47 62.0253,217.47 63,211.5C 73.1316,203.037 82.9649,194.204 92.5,185C 93.448,184.517 94.448,184.351 95.5,184.5C 95.3184,182.409 95.6518,180.409 96.5,178.5C 95.9984,177.479 95.3317,177.312 94.5,178C 81.3532,189.736 68.0199,201.236 54.5,212.5C 53.5,212.167 52.8333,211.5 52.5,210.5C 65.1761,198.492 78.1761,186.825 91.5,175.5C 92.2304,173.659 92.8971,171.825 93.5,170C 93.1667,169.833 92.8333,169.667 92.5,169.5C 78.5732,181.382 64.7399,193.382 51,205.5C 50.1667,204.667 49.3333,203.833 48.5,203C 56.3703,195.461 64.5369,188.294 73,181.5C 74.1577,177.203 75.1577,172.869 76,168.5C 79.9658,165.536 83.6325,162.203 87,158.5C 87.3809,155.959 88.2143,153.626 89.5,151.5C 88.3693,144.126 88.7026,136.793 90.5,129.5C 90,127.5 89.5,125.5 89,123.5C 68.3333,101.5 47.6667,79.5 27,57.5C 26.5,55.3333 27.3333,54.5 29.5,55C 50.4583,77.113 71.2916,99.2796 92,121.5C 95.2318,117.134 95.2318,112.801 92,108.5C 70.6381,87.4718 49.6381,66.1385 29,44.5C 28.6992,41.9085 29.8659,41.0752 32.5,42C 45.1112,55.2806 57.7778,68.6139 70.5,82C 74.1497,81.8407 77.8163,81.3407 81.5,80.5C 88.5677,86.0612 95.2344,92.2279 101.5,99C 106.496,99.6643 108.33,97.4977 107,92.5C 85.2208,70.7208 63.3874,48.8874 41.5,27C 42.3333,26.1667 43.1667,25.3333 44,24.5C 66.2618,47.6045 89.0951,69.6045 112.5,90.5C 115.47,89.5304 117.47,87.5304 118.5,84.5C 104.99,69.1584 91.3232,53.9917 77.5,39C 72.6369,38.9714 67.9703,38.1381 63.5,36.5C 57.7954,30.7974 52.4621,24.7974 47.5,18.5C 47.8627,17.8165 48.1961,17.1499 48.5,16.5 Z" />

  <!-- Solder points - gold -->
  <g>
    <!-- Top-left -->
    <circle cx="48" cy="16" r="2.8" fill="#C9A84C" />
    <circle cx="27" cy="57" r="2.8" fill="#C9A84C" />
    <circle cx="29" cy="44" r="2.8" fill="#C9A84C" />
    <circle cx="41" cy="27" r="2.8" fill="#C9A84C" />
    <!-- Top-right -->
    <circle cx="263" cy="42" r="2.8" fill="#C9A84C" />
    <circle cx="265" cy="51" r="2.8" fill="#C9A84C" />
    <circle cx="275" cy="71" r="2.8" fill="#C9A84C" />
    <circle cx="281" cy="77" r="2.8" fill="#C9A84C" />
    <circle cx="283" cy="80" r="2.8" fill="#C9A84C" />
    <!-- Bottom-right -->
    <circle cx="301" cy="237" r="2.8" fill="#C9A84C" />
    <circle cx="300" cy="251" r="2.8" fill="#C9A84C" />
    <circle cx="283" cy="268" r="2.8" fill="#C9A84C" />
    <circle cx="273" cy="270" r="2.8" fill="#C9A84C" />
    <!-- Bottom-left -->
    <circle cx="71" cy="278" r="2.8" fill="#C9A84C" />
    <circle cx="66" cy="272" r="2.8" fill="#C9A84C" />
    <circle cx="51" cy="257" r="2.8" fill="#C9A84C" />
    <circle cx="51" cy="205" r="2.8" fill="#C9A84C" />
    <circle cx="44" cy="249" r="2.8" fill="#C9A84C" />
  </g>

  <!-- Chip package - rounded square -->
  <rect x="88" y="72" width="144" height="144" rx="10" ry="10" fill="#f5f3ef" stroke="#1a1e2a" stroke-width="2.5" />

  <!-- Chip die inner border - gold -->
  <rect x="94" y="78" width="132" height="132" rx="7" ry="7" fill="none" stroke="#C9A84C" stroke-width="0.8" opacity="0.4" />

  <!-- Center circle area - silicon gray -->
  <path fill="#eae6df" d="M 156.5,78.5 C 164.643,78.6845 172.643,79.8512 180.5,82C 182.116,82.6152 183.449,83.6152 184.5,85C 188.356,85.867 192.023,87.2003 195.5,89C 196.743,90.1545 197.743,91.4878 198.5,93C 199.833,93.3333 201.167,93.6667 202.5,94C 205,97.8333 208.167,101 212,103.5C 212.428,107.619 214.428,110.619 218,112.5C 218.563,116.398 220.063,119.898 222.5,123C 221.591,124.789 221.424,126.623 222,128.5C 225.978,130.932 226.478,133.932 223.5,137.5C 225.482,139.81 226.482,142.476 226.5,145.5C 224.989,153.36 223.489,161.027 222,168.5C 218.253,170.647 216.419,173.98 216.5,178.5C 215.252,179.04 214.085,179.707 213,180.5C 212.689,182.556 212.189,184.556 211.5,186.5C 206.928,187.571 204.261,190.404 203.5,195C 200.726,196.781 197.726,198.115 194.5,199C 193.663,200.011 193.33,201.178 193.5,202.5C 191.143,202.337 188.81,202.503 186.5,203C 185.643,203.689 184.977,204.522 184.5,205.5C 181.064,206.192 177.73,207.192 174.5,208.5C 171.48,207.004 168.813,207.504 166.5,210C 158.233,210.92 150.066,210.42 142,208.5C 139.971,205.474 137.304,204.474 134,205.5C 132.102,202.311 129.269,200.811 125.5,201C 124.379,197.092 121.713,195.092 117.5,195C 116.74,193.559 116.074,192.059 115.5,190.5C 109.688,188.521 106.188,184.521 105,178.5C 103.926,177.382 102.76,176.382 101.5,175.5C 102.789,172.063 101.789,169.397 98.5,167.5C 99.7997,164.568 99.1331,162.068 96.5,160C 97.9656,157.562 97.6323,155.395 95.5,153.5C 94.3358,146.858 94.1691,140.192 95,133.5C 96.7074,131.411 97.8741,129.078 98.5,126.5C 97.1785,123.821 97.1785,121.154 98.5,118.5C 100.39,118.703 101.89,118.037 103,116.5C 103.497,114.19 103.663,111.857 103.5,109.5C 107.991,108.834 110.157,106.167 110,101.5C 114.631,100.702 117.464,98.0349 118.5,93.5C 120.611,92.0512 122.944,91.0512 125.5,90.5C 126.415,89.6721 127.081,88.6721 127.5,87.5C 130.839,86.4725 133.839,84.9725 136.5,83C 138.856,82.8446 141.189,82.8446 143.5,83C 144.981,82.0197 146.315,80.853 147.5,79.5C 149.536,81.3446 151.87,81.8446 154.5,81C 155.756,80.5831 156.423,79.7498 156.5,78.5 Z" />

  <!-- Inner flower SS - dark charcoal -->
  <path fill="#1a1e2a" d="M 154.5,90.5 C 167.177,88.9885 176.677,93.6551 183,104.5C 184.31,108.07 185.143,111.737 185.5,115.5C 183.833,115.5 182.167,115.5 180.5,115.5C 179.186,102.853 172.186,95.8525 159.5,94.5C 141.584,98.3513 135.751,109.018 142,126.5C 144.872,130.645 147.372,130.478 149.5,126C 156.246,122.873 163.079,122.706 170,125.5C 183.132,116.811 195.466,117.811 207,128.5C 215.41,141.902 213.91,154.068 202.5,165C 197.938,168.021 192.938,169.521 187.5,169.5C 187.5,168.167 187.5,166.833 187.5,165.5C 203.573,163.061 210.073,153.728 207,137.5C 201.592,126.246 192.759,122.079 180.5,125C 173.808,126.845 172.975,130.011 178,134.5C 180.246,141.205 179.746,147.705 176.5,154C 186.718,168.149 185.385,181.149 172.5,193C 151.68,201.757 138.347,195.257 132.5,173.5C 134.045,172.548 135.712,172.215 137.5,172.5C 138.021,180.524 141.688,186.691 148.5,191C 169.481,195.351 179.314,186.851 178,165.5C 176.719,162.397 174.886,159.731 172.5,157.5C 165.335,161.976 157.835,162.643 150,159.5C 139.901,168.256 128.734,169.756 116.5,164C 104.018,152.83 102.351,140.33 111.5,126.5C 116.44,120.628 122.774,117.628 130.5,117.5C 130.5,119.167 130.5,120.833 130.5,122.5C 113.256,124.974 107.089,134.64 112,151.5C 116.702,161.499 124.535,165.333 135.5,163C 139.207,162.064 142.374,160.231 145,157.5C 143.123,152.88 141.623,148.046 140.5,143C 140.481,140.001 141.148,137.168 142.5,134.5C 130.975,119.653 132.308,106.153 146.5,94C 149.158,92.522 151.825,91.3554 154.5,90.5 Z" />

  <!-- Flower petals - gold accent -->
  <path fill="#C9A84C" fill-opacity="0.70" d="M 155.5,129.5 C 159.308,129.163 162.974,129.663 166.5,131C 164.457,132.708 162.79,134.708 161.5,137C 156.853,139.23 153.186,138.063 150.5,133.5C 152.015,131.918 153.681,130.584 155.5,129.5 Z" />
  <path fill="#C9A84C" fill-opacity="0.62" d="M 169.5,133.5 C 174.305,138.74 174.638,144.407 170.5,150.5C 168.5,148.5 166.5,146.5 164.5,144.5C 165.833,143.167 165.833,141.833 164.5,140.5C 166.422,138.313 168.088,135.98 169.5,133.5 Z" />
  <path fill="#C9A84C" fill-opacity="0.54" d="M 147.5,138.5 C 150.503,140.007 153.17,142.007 155.5,144.5C 153.727,147.06 151.727,149.393 149.5,151.5C 146.762,147.41 146.095,143.077 147.5,138.5 Z" />
  <path fill="#C9A84C" fill-opacity="0.46" d="M 157.5,147.5 C 161.556,148.209 164.89,150.209 167.5,153.5C 163.483,156.285 159.149,156.952 154.5,155.5C 155.448,152.86 156.448,150.193 157.5,147.5 Z" />

  <!-- Typography -->
  <text x="160" y="306" text-anchor="middle" font-family="system-ui, -apple-system, sans-serif" font-weight="700" font-size="23" letter-spacing="3" fill="#1a1e2a">SAADAW SYSTEMS</text>
  <text x="160" y="325" text-anchor="middle" font-family="system-ui, -apple-system, sans-serif" font-weight="400" font-size="10.5" letter-spacing="3" fill="#B08D3E" text-transform="uppercase">ARCHITECTES DU NUM&#xC9;RIQUE</text>
</svg>
